<svg xmlns="http://www.w3.org/2000/svg" version="1.1" xmlns:xlink="http://www.w3.org/1999/xlink" xmlns:svgjs="http://svgjs.dev/svgjs" viewBox="0 0 800 800"><defs><filter id="nnneon-filter" x="-100%" y="-100%" width="400%" height="400%" filterUnits="objectBoundingBox" primitiveUnits="userSpaceOnUse" color-interpolation-filters="sRGB">
    <feGaussianBlur stdDeviation="28 12" x="0%" y="0%" width="100%" height="100%" in="SourceGraphic" edgeMode="none" result="blur"></feGaussianBlur></filter><filter id="nnneon-filter2" x="-100%" y="-100%" width="400%" height="400%" filterUnits="objectBoundingBox" primitiveUnits="userSpaceOnUse" color-interpolation-filters="sRGB">
    <feGaussianBlur stdDeviation="14 17" x="0%" y="0%" width="100%" height="100%" in="SourceGraphic" edgeMode="none" result="blur"></feGaussianBlur></filter></defs><g stroke-width="15" stroke="hsl(32, 100%, 51%)" fill="none"><path d="M387.1058619670571 214.03171522616088C395.08475458184216 209.42592912079365 404.91524541815784 209.42592912079365 412.8941380329429 214.0330046399642L554.605872670199 295.85017870039695C562.5847652849841 300.4559648057642 567.5000107031419 308.9699641489164 567.5000107031419 318.18282577345417V481.8171738943197C567.5000107031419 491.0300355188575 562.5847652849841 499.54403486200977 554.605872670199 504.15111038118016L412.8941380329429 585.968284441613C404.91524541815784 590.5740705469802 395.08475458184216 590.5740705469802 387.1058619670571 585.9669950278098L245.394127329801 504.14982096737697C237.41523471501597 499.54403486200977 232.49998929685808 491.0300355188575 232.49998929685808 481.8171738943197V318.18282577345417C232.49998929685808 308.9699641489164 237.41523471501597 300.4559648057642 245.394127329801 295.8488892865937L387.1058619670571 214.03171522616088Z " filter="url(#nnneon-filter)"></path><path d="M409.1058619670571 214.03171522616088C417.08475458184216 209.42592912079365 426.91524541815784 209.42592912079365 434.8941380329429 214.0330046399642L576.605872670199 295.85017870039695C584.5847652849841 300.4559648057642 589.5000107031419 308.9699641489164 589.5000107031419 318.18282577345417V481.8171738943197C589.5000107031419 491.0300355188575 584.5847652849841 499.54403486200977 576.605872670199 504.15111038118016L434.8941380329429 585.968284441613C426.91524541815784 590.5740705469802 417.08475458184216 590.5740705469802 409.1058619670571 585.9669950278098L267.394127329801 504.14982096737697C259.41523471501597 499.54403486200977 254.49998929685808 491.0300355188575 254.49998929685808 481.8171738943197V318.18282577345417C254.49998929685808 308.9699641489164 259.41523471501597 300.4559648057642 267.394127329801 295.8488892865937L409.1058619670571 214.03171522616088Z " filter="url(#nnneon-filter2)" opacity="0.07"></path><path d="M365.1058619670571 214.03171522616088C373.08475458184216 209.42592912079365 382.91524541815784 209.42592912079365 390.8941380329429 214.0330046399642L532.605872670199 295.85017870039695C540.5847652849841 300.4559648057642 545.5000107031419 308.9699641489164 545.5000107031419 318.18282577345417V481.8171738943197C545.5000107031419 491.0300355188575 540.5847652849841 499.54403486200977 532.605872670199 504.15111038118016L390.8941380329429 585.968284441613C382.91524541815784 590.5740705469802 373.08475458184216 590.5740705469802 365.1058619670571 585.9669950278098L223.394127329801 504.14982096737697C215.41523471501597 499.54403486200977 210.49998929685808 491.0300355188575 210.49998929685808 481.8171738943197V318.18282577345417C210.49998929685808 308.9699641489164 215.41523471501597 300.4559648057642 223.394127329801 295.8488892865937L365.1058619670571 214.03171522616088Z " filter="url(#nnneon-filter2)" opacity="0.07"></path><path d="M387.1058619670571 214.03171522616088C395.08475458184216 209.42592912079365 404.91524541815784 209.42592912079365 412.8941380329429 214.0330046399642L554.605872670199 295.85017870039695C562.5847652849841 300.4559648057642 567.5000107031419 308.9699641489164 567.5000107031419 318.18282577345417V481.8171738943197C567.5000107031419 491.0300355188575 562.5847652849841 499.54403486200977 554.605872670199 504.15111038118016L412.8941380329429 585.968284441613C404.91524541815784 590.5740705469802 395.08475458184216 590.5740705469802 387.1058619670571 585.9669950278098L245.394127329801 504.14982096737697C237.41523471501597 499.54403486200977 232.49998929685808 491.0300355188575 232.49998929685808 481.8171738943197V318.18282577345417C232.49998929685808 308.9699641489164 237.41523471501597 300.4559648057642 245.394127329801 295.8488892865937L387.1058619670571 214.03171522616088Z "></path></g></svg>